<svg width="124" height="20" viewBox="0 0 124 20" fill="none" xmlns="http://www.w3.org/2000/svg">
<path d="M9.58663 2.04906C9.93899 1.25857 11.061 1.25857 11.4134 2.04906L13.0278 5.67082C13.1731 5.99685 13.4812 6.22069 13.8362 6.25816L17.7796 6.67436C18.6402 6.7652 18.987 7.8323 18.344 8.41169L15.3984 11.0663C15.1333 11.3052 15.0156 11.6674 15.0896 12.0166L15.9124 15.8956C16.0919 16.7422 15.1842 17.4017 14.4345 16.9693L10.9996 14.9882C10.6904 14.8098 10.3096 14.8098 10.0004 14.9882L6.56548 16.9693C5.81578 17.4017 4.90805 16.7422 5.08762 15.8956L5.91036 12.0166C5.98443 11.6674 5.86674 11.3052 5.60158 11.0663L2.65596 8.41169C2.01304 7.8323 2.35977 6.7652 3.22045 6.67436L7.16383 6.25816C7.51881 6.22069 7.8269 5.99685 7.97223 5.67082L9.58663 2.04906Z" fill="#F55757"/>
<path d="M35.5866 2.04906C35.939 1.25857 37.061 1.25857 37.4134 2.04906L39.0278 5.67082C39.1731 5.99685 39.4812 6.22069 39.8362 6.25816L43.7796 6.67436C44.6402 6.7652 44.987 7.8323 44.344 8.41169L41.3984 11.0663C41.1333 11.3052 41.0156 11.6674 41.0896 12.0166L41.9124 15.8956C42.0919 16.7422 41.1842 17.4017 40.4345 16.9693L36.9996 14.9882C36.6904 14.8098 36.3096 14.8098 36.0004 14.9882L32.5655 16.9693C31.8158 17.4017 30.9081 16.7422 31.0876 15.8956L31.9104 12.0166C31.9844 11.6674 31.8667 11.3052 31.6016 11.0663L28.656 8.41169C28.013 7.8323 28.3598 6.7652 29.2205 6.67436L33.1638 6.25816C33.5188 6.22069 33.8269 5.99685 33.9722 5.67082L35.5866 2.04906Z" fill="#F55757"/>
<path d="M61.0792 2.17455C61.4236 1.36113 62.5764 1.36114 62.9208 2.17455L64.3961 5.65834C64.5371 5.99141 64.847 6.22235 65.2065 6.26229L68.8953 6.67211C69.7409 6.76606 70.0904 7.80593 69.4731 8.39149L66.6478 11.0717C66.3981 11.3086 66.2877 11.6572 66.3557 11.9947L67.1334 15.8541C67.3055 16.7082 66.3789 17.3586 65.6341 16.9064L62.519 15.0151C62.2001 14.8215 61.7999 14.8215 61.481 15.0151L58.3659 16.9064C57.6211 17.3586 56.6945 16.7082 56.8666 15.8541L57.6443 11.9947C57.7123 11.6572 57.6019 11.3086 57.3522 11.0717L54.5269 8.39149C53.9096 7.80594 54.2591 6.76606 55.1047 6.67211L58.7935 6.26229C59.153 6.22235 59.4629 5.99141 59.6039 5.65834L61.0792 2.17455Z" fill="#F55757"/>
<path d="M86.5866 2.04906C86.939 1.25857 88.061 1.25857 88.4134 2.04906L90.0278 5.67082C90.1731 5.99685 90.4812 6.22069 90.8362 6.25816L94.7796 6.67436C95.6402 6.7652 95.987 7.8323 95.344 8.41169L92.3984 11.0663C92.1333 11.3052 92.0156 11.6674 92.0896 12.0166L92.9124 15.8956C93.0919 16.7422 92.1842 17.4017 91.4345 16.9693L87.9996 14.9882C87.6904 14.8098 87.3096 14.8098 87.0004 14.9882L83.5655 16.9693C82.8158 17.4017 81.9081 16.7422 82.0876 15.8956L82.9104 12.0166C82.9844 11.6674 82.8667 11.3052 82.6016 11.0663L79.656 8.41169C79.013 7.8323 79.3598 6.7652 80.2205 6.67436L84.1638 6.25816C84.5188 6.22069 84.8269 5.99685 84.9722 5.67082L86.5866 2.04906Z" fill="#F55757"/>
<path d="M112.587 2.04906C112.939 1.25857 114.061 1.25857 114.413 2.04906L116.028 5.67082C116.173 5.99685 116.481 6.22069 116.836 6.25816L120.78 6.67436C121.64 6.7652 121.987 7.8323 121.344 8.41169L118.398 11.0663C118.133 11.3052 118.016 11.6674 118.09 12.0166L118.912 15.8956C119.092 16.7422 118.184 17.4017 117.435 16.9693L114 14.9882C113.69 14.8098 113.31 14.8098 113 14.9882L109.565 16.9693C108.816 17.4017 107.908 16.7422 108.088 15.8956L108.91 12.0166C108.984 11.6674 108.867 11.3052 108.602 11.0663L105.656 8.41169C105.013 7.8323 105.36 6.7652 106.22 6.67436L110.164 6.25816C110.519 6.22069 110.827 5.99685 110.972 5.67082L112.587 2.04906Z" fill="#F55757"/>
</svg>
