<svg width="75" height="75" viewBox="0 0 75 75" fill="none" xmlns="http://www.w3.org/2000/svg">
<g id="Rocket/ 24 / Solid">
<path id="Vector" d="M70.625 6.56256C70.3125 5.62506 69.375 4.68756 68.4375 4.37506C55.3125 0.937558 41.875 5.00006 32.8125 15.6251L29.375 19.6876L20.9375 17.8126C16.875 16.2501 12.5 18.1251 10.625 21.8751L3.75 34.0626C3.125 35.0001 3.125 35.9376 3.75 36.8751C4.0625 37.8126 5 38.4376 5.9375 38.7501L15.625 40.9376C14.6875 43.4376 14.375 45.9376 13.75 48.4376C13.75 49.3751 14.0625 50.3126 14.6875 50.9376L24.375 60.6251C25 61.2501 25.625 61.5626 26.5625 61.5626H26.875C29.6875 61.2501 32.1875 60.9376 34.6875 60.0001L36.5625 69.3751C36.875 70.3126 37.5 71.2501 38.4375 71.5626C38.75 71.8751 39.375 71.8751 39.6875 71.8751C40.3125 71.8751 40.625 71.8751 41.25 71.5626L53.4375 64.6876C56.875 62.8126 58.75 58.4376 57.8125 54.3751L55.625 45.6251L59.375 42.1876C69.6875 33.4376 74.0625 19.3751 70.625 6.56256ZM22.8125 27.5001C20.9375 30.0001 19.0625 32.5001 17.8125 35.0001L11.25 33.4376L15.9375 25.0001C16.5625 23.7501 17.8125 23.4376 19.375 23.7501L24.6875 25.0001L22.8125 27.5001ZM50 59.0626L41.5625 63.7501L40.3125 57.5001C43.125 56.2501 45.625 54.375 47.8125 52.5001L50 50.3126L51.25 55.625C51.875 57.1875 50.9375 58.7501 50 59.0626ZM52.1875 27.5001C49.6875 27.5001 47.5 25.3126 47.5 22.8126C47.5 20.3126 49.6875 18.1251 52.1875 18.1251C54.6875 18.1251 56.875 20.3126 56.875 22.8126C56.875 25.3126 55 27.5001 52.1875 27.5001Z" fill="#F55757"/>
</g>
</svg>
