<svg width="107" height="107" viewBox="0 0 107 107" fill="none" xmlns="http://www.w3.org/2000/svg">
<g id="Keyicon" clip-path="url(#clip0_8_92)">
<path id="Vector" d="M74.6018 21.3015C75.1746 22.3441 75.2186 23.4721 75.2165 24.6303C75.1995 32.9997 75.1948 41.3688 75.2022 49.7378C75.1969 54.2848 72.6937 57.942 68.5497 59.3134C67.4594 59.6623 66.3217 59.8409 65.1768 59.8427C57.515 59.8883 49.8536 59.8945 42.1928 59.8612C36.4377 59.8464 32.1972 55.6377 32.1765 49.8841C32.145 41.1722 32.1503 32.461 32.1924 23.7505C32.1961 22.9333 32.5727 22.1155 32.7715 21.3015L33.7033 20.3697C34.7481 19.798 35.874 19.7571 37.0311 19.7593C48.1341 19.7748 59.2369 19.7761 70.3396 19.763C71.4968 19.7619 72.6264 19.799 73.669 20.3707L74.6018 21.3015ZM65.1742 37.2702C66.3027 36.2478 66.9937 34.5703 67.0139 32.7301C67.0316 31.1447 67.0328 29.5592 67.0176 27.9735C67.0027 26.3762 66.1118 25.4852 64.5091 25.4852C57.2903 25.4768 50.0702 25.4769 42.8489 25.4858C41.2542 25.4895 40.3685 26.3836 40.3553 27.9889C40.3422 29.5499 40.3431 31.111 40.3579 32.6723C40.4014 36.4122 42.9316 38.9646 46.6688 38.9832C51.3516 39.0097 56.0355 38.9906 60.7189 38.989C62.4244 38.989 63.9252 38.4598 65.1742 37.2702Z" fill="white"/>
<path id="Vector_2" d="M49.8062 102.573C49.1672 101.443 48.4624 100.346 47.8923 99.1836C46.6492 96.6497 46.0812 93.9657 46.0923 91.1258C46.1178 83.3087 46.0165 68.6255 45.9486 63.6669C45.9457 63.4468 45.9866 63.2284 46.0688 63.0243C46.151 62.8202 46.2729 62.6344 46.4275 62.4777C46.582 62.3211 46.7662 62.1967 46.9692 62.1118C47.1722 62.0269 47.3901 61.9831 47.6102 61.9831L59.6057 61.9826C60.0453 61.9823 60.467 62.1564 60.7786 62.4665C61.0901 62.7766 61.266 63.1976 61.2677 63.6372C61.2799 66.195 61.263 71.0973 61.2778 73.7501C61.2831 74.6357 61.0211 75.3506 60.3789 75.9727C59.6582 76.6711 58.9481 77.3791 58.2199 78.1104C57.721 78.6122 57.4398 79.2903 57.4374 79.9979C57.435 80.7055 57.7116 81.3856 58.2072 81.8906L58.2252 81.9087C59.0457 82.745 59.8358 83.6115 60.6828 84.4192C61.1627 84.8769 61.1802 85.2105 60.704 85.6846C59.4789 86.9097 58.2889 88.1687 57.0882 89.4181L57.0818 89.4245C56.9038 89.6098 56.8007 89.8545 56.7924 90.1114C56.7841 90.3682 56.8711 90.6191 57.0368 90.8155C57.5756 91.4551 58.1033 92.0825 58.6421 92.7104C59.1809 93.3383 59.7261 93.9662 60.2861 94.5782C60.7226 95.055 60.8329 95.562 60.6393 96.1904C59.9594 98.3945 59.0748 100.491 57.6323 102.319C57.5832 102.401 57.5451 102.49 57.5188 102.582L56.2763 103.825C56.0922 103.935 55.9066 104.044 55.7237 104.158C54.4716 104.93 53.1993 105.018 51.8973 104.284C51.673 104.158 51.4365 104.05 51.2106 103.931L49.8062 102.573Z" fill="white"/>
<path id="Vector_3" d="M51.2042 103.924C51.4317 104.046 51.6704 104.156 51.8974 104.284C53.1999 105.018 54.4721 104.931 55.7232 104.156C55.9061 104.043 56.0912 103.934 56.2758 103.823L53.6893 106.409C52.861 105.581 52.0326 104.753 51.2042 103.924Z" fill="white"/>
</g>
<defs>
<clipPath id="clip0_8_92">
<rect width="75" height="75" fill="white" transform="translate(0.467041 53.3992) rotate(-45)"/>
</clipPath>
</defs>
</svg>
