<svg width="75" height="75" viewBox="0 0 75 75" fill="none" xmlns="http://www.w3.org/2000/svg">
<g id="Layers Alt/ 24 / Solid">
<path id="Vector" d="M50 21.875H18.75C16.875 21.875 15.625 23.125 15.625 25V32.8125H39.0625C40.9375 32.8125 42.1875 34.0625 42.1875 35.9375V59.375H50C51.875 59.375 53.125 58.125 53.125 56.25V25C53.125 23.125 51.875 21.875 50 21.875ZM34.375 37.5H9.375C7.5 37.5 6.25 38.75 6.25 40.625V65.625C6.25 67.5 7.5 68.75 9.375 68.75H34.375C36.25 68.75 37.5 67.5 37.5 65.625V40.625C37.5 38.75 36.25 37.5 34.375 37.5ZM65.625 6.25H28.125C26.25 6.25 25 7.5 25 9.375V17.1875H54.6875C56.5625 17.1875 57.8125 18.4375 57.8125 20.3125V50H65.625C67.5 50 68.75 48.75 68.75 46.875V9.375C68.75 7.5 67.5 6.25 65.625 6.25Z" fill="#F55757"/>
</g>
</svg>
