<svg width="75" height="75" viewBox="0 0 75 75" fill="none" xmlns="http://www.w3.org/2000/svg">
<g id="User Md/ 24 / Solid">
<path id="Vector" d="M49.6875 41.25C49.375 41.25 49.375 40.9375 49.0625 40.9375C53.75 37.5 56.25 32.1875 56.25 26.25C56.25 25.625 56.25 25 56.25 24.375V24.0625L57.1875 16.5625C57.8125 11.5625 54.375 7.1875 49.6875 6.25L46.875 5.625C40.625 4.6875 34.375 4.6875 28.125 5.625L25.625 6.25C20.625 7.1875 17.1875 11.5625 17.8125 16.5625L18.75 24.0625V24.375C18.75 25 18.75 25.625 18.75 26.25C18.75 31.875 21.25 37.5 25.9375 40.9375C25.625 40.9375 25.625 41.25 25.3125 41.25C15 45.625 7.81251 55.3125 6.56251 66.5625C6.25001 68.125 7.50001 69.6875 9.37501 70C11.25 70.3125 64.0625 70 65.625 70H65.9375C67.5 69.6875 68.75 68.125 68.75 66.5625C67.1875 55.3125 60 45.625 49.6875 41.25ZM37.5 50.9375L32.1875 45.625C35.625 45 39.0625 45 42.5 45.625L37.5 50.9375ZM37.5 38.75C30.625 38.75 25.3125 33.4375 25 26.5625H50C49.6875 33.4375 44.375 38.75 37.5 38.75Z" fill="#F55757"/>
</g>
</svg>
