<svg width="75" height="75" viewBox="0 0 75 75" fill="none" xmlns="http://www.w3.org/2000/svg">
<g id="Flip H/ 24 / Solid">
<path id="Vector" d="M65.625 34.375H9.375C7.5 34.375 6.25 35.625 6.25 37.5C6.25 39.375 7.5 40.625 9.375 40.625H65.625C67.5 40.625 68.75 39.375 68.75 37.5C68.75 35.625 67.5 34.375 65.625 34.375ZM53.125 46.875H21.875C20.9375 46.875 20.3125 47.1875 19.6875 47.8125C18.4375 49.0625 18.4375 50.9375 19.6875 52.1875L35.3125 67.8125C35.9375 68.4375 36.5625 68.75 37.5 68.75C38.4375 68.75 39.0625 68.4375 39.6875 67.8125L55.3125 52.1875C55.9375 51.5625 56.25 50.9375 56.25 50C56.25 48.125 55 46.875 53.125 46.875ZM48.125 25C48.125 26.875 49.375 28.125 51.25 28.125H53.125C54.0625 28.125 54.6875 27.8125 55.3125 27.1875C56.5625 25.9375 56.5625 24.0625 55.3125 22.8125L53.125 20.625C52.1875 19.6875 50.625 19.375 49.375 20C47.8125 20.625 47.1875 22.5 48.125 24.0625C48.125 24.6875 48.125 24.6875 48.125 25ZM36.25 15L37.5 13.75L40 16.25C40.625 16.875 41.25 17.1875 42.1875 17.1875C43.125 17.1875 43.75 16.875 44.375 16.25C45.625 15 45.625 13.125 44.375 11.875L40.9375 8.4375C40.625 8.125 40.3125 8.125 40 7.8125C40 7.5 39.6875 7.1875 39.375 6.875C38.125 5.625 36.25 5.625 35 6.875L31.5625 10.3125C30.3125 11.5625 30.3125 13.4375 31.5625 14.6875C32.8125 15.9375 35.3125 16.25 36.25 15ZM22.1875 28.125C23.125 28.125 23.75 27.8125 24.375 27.1875L27.8125 23.75C29.0625 22.5 29.0625 20.625 27.8125 19.375C26.5625 18.125 24.6875 18.125 23.4375 19.375L19.6875 22.5C19.375 23.125 19.0625 24.0625 19.0625 24.6875C19.0625 26.5625 20.3125 27.8125 22.1875 28.125ZM34.0625 28.125H38.75C40.625 28.125 41.875 26.875 41.875 25C41.875 23.125 40.625 21.875 38.75 21.875H34.0625C32.1875 21.875 30.9375 23.125 30.9375 25C30.9375 26.875 32.5 28.125 34.0625 28.125Z" fill="#F55757"/>
</g>
</svg>
