<svg width="75" height="75" viewBox="0 0 75 75" fill="none" xmlns="http://www.w3.org/2000/svg">
<g id="Shield Plus/ 24 / Solid">
<path id="Vector" d="M61.25 11.25C60.625 10.625 59.6875 10.3125 58.75 10.625C51.875 12.1875 45 10.625 39.375 6.5625C38.4375 5.9375 36.875 5.9375 35.9375 6.5625C30 10.625 23.125 12.1875 16.25 10.625C14.6875 10.3125 12.8125 11.5625 12.5 13.125C12.5 13.4375 12.5 13.4375 12.5 13.75V37.1875C12.5 46.25 16.875 54.6875 24.375 60L35.9375 68.125C36.875 68.75 38.4375 68.75 39.6875 68.125L51.25 60C58.75 54.6875 63.125 46.25 63.125 37.1875V13.75C62.5 12.8125 62.1875 11.875 61.25 11.25ZM43.75 40.625H40.625V43.75C40.625 45.625 39.375 46.875 37.5 46.875C35.625 46.875 34.375 45.625 34.375 43.75V40.625H31.25C29.375 40.625 28.125 39.375 28.125 37.5C28.125 35.625 29.375 34.375 31.25 34.375H34.375V31.25C34.375 29.375 35.625 28.125 37.5 28.125C39.375 28.125 40.625 29.375 40.625 31.25V34.375H43.75C45.625 34.375 46.875 35.625 46.875 37.5C46.875 39.375 45.625 40.625 43.75 40.625Z" fill="#F55757"/>
</g>
</svg>
