<svg width="125" height="126" viewBox="0 0 125 126" fill="none" xmlns="http://www.w3.org/2000/svg">
<g id="Trip">
<path id="Vector" d="M58.825 28.7412H53.9388C53.6892 28.7411 53.4437 28.8042 53.2251 28.9246C53.0065 29.0451 52.822 29.2189 52.6888 29.43L3.52875 107.277C2 109.704 3.74 112.866 6.60875 112.866H38.92C39.7557 112.866 40.5661 112.579 41.2152 112.053C41.8643 111.526 42.3126 110.793 42.485 109.975L59.46 29.5237C59.4799 29.4292 59.4785 29.3315 59.4558 29.2376C59.4331 29.1438 59.3898 29.0561 59.3289 28.9812C59.2681 28.9062 59.1913 28.8457 59.1041 28.8042C59.0169 28.7627 58.9216 28.7412 58.825 28.7412Z" fill="white"/>
<path id="Vector_2" d="M70.4425 28.7412H66.27C66.1597 28.7406 66.0505 28.7641 65.9502 28.8102C65.8499 28.8562 65.7609 28.9236 65.6894 29.0077C65.6179 29.0918 65.5657 29.1905 65.5365 29.297C65.5072 29.4034 65.5016 29.5149 65.52 29.6237L79.1513 110.099C79.2825 110.874 79.6842 111.577 80.285 112.083C80.8857 112.59 81.6466 112.868 82.4325 112.866H118.933C119.529 112.866 120.114 112.706 120.626 112.402C121.139 112.098 121.561 111.661 121.847 111.138C122.133 110.615 122.273 110.025 122.252 109.429C122.232 108.834 122.051 108.254 121.73 107.752L71.4938 29.3162C71.3807 29.14 71.2252 28.995 71.0415 28.8946C70.8578 28.7941 70.6519 28.7414 70.4425 28.7412Z" fill="white"/>
<path id="Vector_3" d="M62.6925 28.7412H61.9625L58.375 110.011C58.3586 110.38 58.4172 110.749 58.5471 111.094C58.6771 111.44 58.8757 111.756 59.1311 112.023C59.3865 112.289 59.6933 112.502 60.0329 112.647C60.3726 112.792 60.7382 112.866 61.1075 112.866H63.0363C63.4041 112.866 63.7681 112.792 64.1066 112.648C64.445 112.504 64.751 112.294 65.0061 112.029C65.2612 111.764 65.4603 111.45 65.5913 111.106C65.7224 110.763 65.7827 110.396 65.7688 110.029L62.6925 28.7412Z" fill="white"/>
</g>
</svg>
