<svg width="125" height="20" viewBox="0 0 125 20" fill="none" xmlns="http://www.w3.org/2000/svg">
<path d="M9.58663 2.04906C9.93899 1.25857 11.061 1.25857 11.4134 2.04906L13.0278 5.67082C13.1731 5.99685 13.4812 6.22069 13.8362 6.25816L17.7796 6.67436C18.6402 6.7652 18.987 7.8323 18.344 8.41169L15.3984 11.0663C15.1333 11.3052 15.0156 11.6674 15.0896 12.0166L15.9124 15.8956C16.0919 16.7422 15.1842 17.4017 14.4345 16.9693L10.9996 14.9882C10.6904 14.8098 10.3096 14.8098 10.0004 14.9882L6.56548 16.9693C5.81578 17.4017 4.90805 16.7422 5.08762 15.8956L5.91036 12.0166C5.98443 11.6674 5.86674 11.3052 5.60158 11.0663L2.65596 8.41169C2.01304 7.8323 2.35977 6.7652 3.22045 6.67436L7.16383 6.25816C7.51881 6.22069 7.8269 5.99685 7.97223 5.67082L9.58663 2.04906Z" fill="#F55757"/>
<path d="M35.5866 2.04906C35.939 1.25857 37.061 1.25857 37.4134 2.04906L39.0278 5.67082C39.1731 5.99685 39.4812 6.22069 39.8362 6.25816L43.7796 6.67436C44.6402 6.7652 44.987 7.8323 44.344 8.41169L41.3984 11.0663C41.1333 11.3052 41.0156 11.6674 41.0896 12.0166L41.9124 15.8956C42.0919 16.7422 41.1842 17.4017 40.4345 16.9693L36.9996 14.9882C36.6904 14.8098 36.3096 14.8098 36.0004 14.9882L32.5655 16.9693C31.8158 17.4017 30.9081 16.7422 31.0876 15.8956L31.9104 12.0166C31.9844 11.6674 31.8667 11.3052 31.6016 11.0663L28.656 8.41169C28.013 7.8323 28.3598 6.7652 29.2205 6.67436L33.1638 6.25816C33.5188 6.22069 33.8269 5.99685 33.9722 5.67082L35.5866 2.04906Z" fill="#F55757"/>
<path d="M61.5866 2.04906C61.939 1.25857 63.061 1.25857 63.4134 2.04906L65.0278 5.67082C65.1731 5.99685 65.4812 6.22069 65.8362 6.25816L69.7795 6.67436C70.6402 6.7652 70.987 7.8323 70.344 8.41169L67.3984 11.0663C67.1333 11.3052 67.0156 11.6674 67.0896 12.0166L67.9124 15.8956C68.0919 16.7422 67.1842 17.4017 66.4345 16.9693L62.9996 14.9882C62.6904 14.8098 62.3096 14.8098 62.0004 14.9882L58.5655 16.9693C57.8158 17.4017 56.9081 16.7422 57.0876 15.8956L57.9104 12.0166C57.9844 11.6674 57.8667 11.3052 57.6016 11.0663L54.656 8.41169C54.013 7.8323 54.3598 6.7652 55.2205 6.67436L59.1638 6.25816C59.5188 6.22069 59.8269 5.99685 59.9722 5.67082L61.5866 2.04906Z" fill="#A6A6A6"/>
<path d="M87.5866 2.04906C87.939 1.25857 89.061 1.25857 89.4134 2.04906L91.0278 5.67082C91.1731 5.99685 91.4812 6.22069 91.8362 6.25816L95.7795 6.67436C96.6402 6.7652 96.987 7.8323 96.344 8.41169L93.3984 11.0663C93.1333 11.3052 93.0156 11.6674 93.0896 12.0166L93.9124 15.8956C94.0919 16.7422 93.1842 17.4017 92.4345 16.9693L88.9996 14.9882C88.6904 14.8098 88.3096 14.8098 88.0004 14.9882L84.5655 16.9693C83.8158 17.4017 82.9081 16.7422 83.0876 15.8956L83.9104 12.0166C83.9844 11.6674 83.8667 11.3052 83.6016 11.0663L80.656 8.41169C80.013 7.8323 80.3598 6.7652 81.2205 6.67436L85.1638 6.25816C85.5188 6.22069 85.8269 5.99685 85.9722 5.67082L87.5866 2.04906Z" fill="#A6A6A6"/>
<path d="M113.587 2.04906C113.939 1.25857 115.061 1.25857 115.413 2.04906L117.028 5.67082C117.173 5.99685 117.481 6.22069 117.836 6.25816L121.78 6.67436C122.64 6.7652 122.987 7.8323 122.344 8.41169L119.398 11.0663C119.133 11.3052 119.016 11.6674 119.09 12.0166L119.912 15.8956C120.092 16.7422 119.184 17.4017 118.435 16.9693L115 14.9882C114.69 14.8098 114.31 14.8098 114 14.9882L110.565 16.9693C109.816 17.4017 108.908 16.7422 109.088 15.8956L109.91 12.0166C109.984 11.6674 109.867 11.3052 109.602 11.0663L106.656 8.41169C106.013 7.8323 106.36 6.7652 107.22 6.67436L111.164 6.25816C111.519 6.22069 111.827 5.99685 111.972 5.67082L113.587 2.04906Z" fill="#A6A6A6"/>
</svg>
