<svg width="75" height="75" viewBox="0 0 75 75" fill="none" xmlns="http://www.w3.org/2000/svg">
<g id="Check Square/ 24 / Solid">
<path id="Vector" d="M65.625 6.25H9.375C7.5 6.25 6.25 7.5 6.25 9.375V65.625C6.25 67.5 7.5 68.75 9.375 68.75H65.625C67.5 68.75 68.75 67.5 68.75 65.625V9.375C68.75 7.5 67.5 6.25 65.625 6.25ZM55.3125 29.0625L34.0625 50.3125C32.8125 51.5625 30.9375 51.5625 29.6875 50.3125L19.6875 40.3125C18.4375 39.0625 18.4375 37.1875 19.6875 35.9375C20.9375 34.6875 22.8125 34.6875 24.0625 35.9375L31.875 43.75L50.9375 24.6875C52.1875 23.4375 54.0625 23.4375 55.3125 24.6875C56.5625 25.9375 56.5625 27.8125 55.3125 29.0625Z" fill="#F55757"/>
</g>
</svg>
